<?xml version="1.0"?>
<svg xmlns="http://www.w3.org/2000/svg" version="1.2" baseProfile="tiny" width="800" height="551" viewBox="0 0 800 551" stroke-linecap="round" stroke-linejoin="round">
<g id="ne_10m_admin_0_countries_jpn">
<path d="M 224.07 337.03 218.59 352.49 219.31 355.44 218.67 358.31 215.97 364.91 213.92 365.26 212.54 363.37 208.91 363.5 207.42 365.73 209.75 366.61 208.62 369.28 207.28 369.39 205.11 372.17 199.99 373.87 201.79 366.21 199.42 363.25 199.22 361.02 197.73 359.04 201.89 359.32 202.03 357.37 198.98 356.39 197.09 357.5 194.93 361.86 194.71 363.94 196.08 366.98 198.35 368.42 197.78 370.28 194.74 370.74 192.92 368.66 187.02 368.74 186.27 366.96 188.86 363.62 189.96 358.95 185.72 354.72 186.98 351.13 185.76 348.87 185.93 346.91 189.85 346 193.59 340.32 195.78 338.31 197.82 333.66 196.15 331.32 196.58 328.29 192.46 325.05 192.18 321.42 190.7 319.93 186.95 319.44 184.7 320.92 187.03 324.19 187.57 326.76 190.04 327.24 190.98 330.05 190.1 332.12 185.97 334.05 184.63 332.8 186.72 330.42 185.9 328.88 183.72 328.83 180.14 330.12 178.59 332.24 175.4 328.34 173.52 327.68 171.83 324.09 173.09 321.12 176.74 324.08 176 326.77 180.93 327.08 179.53 325.38 179.9 323.14 178.24 321.93 174.77 321.86 174.3 320.4 169.76 317.73 170.49 313.99 176.34 314.58 177.91 313.31 175.82 311.84 177.55 309.82 182.72 310.79 185.33 310.01 185.41 307.33 188.78 308.75 191.37 307.96 191.26 306.1 193.35 304.39 193.01 302.74 195.42 300.85 198.93 299.48 202.64 299.34 204.84 300.59 206.88 300.42 207.32 304.32 209.16 307.19 217.83 308.56 220.49 306.12 224.26 306.36 225.86 308.6 226.06 311.06 225.04 313.08 220.22 316.5 225.38 316.59 229.54 318.39 227.93 320.26 231.01 321.79 230.34 323.99 232.37 326.41 231.01 329.26 227.69 331.77 224.07 337.03 Z M 302.14 302.21 301.16 303.29 294.38 307.48 291.4 310.46 289.89 313.85 289.27 317.15 282.44 310.83 277.65 309.7 274.26 310.26 270.6 311.84 269.29 313.42 265.54 314.61 265.12 317.9 261.1 322.31 259.07 322.93 256.41 329.27 253.76 330.24 248.89 328.72 251.1 325.88 245 325.26 244.47 322.19 246.66 317.3 243.66 315.71 242.65 311.54 245.73 307.45 250.27 305.11 251.19 300.24 252.67 297.88 256.51 296.02 257.11 294.14 261.87 299.5 266.91 298.03 271.76 298.68 274.6 296.61 275.93 292.03 282.99 288.09 286.46 288.82 288.31 287.84 291.01 290.2 295.7 292.41 299.68 291.8 300.55 293.2 299.82 297.54 302.3 299.02 302.14 302.21 Z M 269.48 286.32 267.39 288.81 264.97 286.79 262.87 290.25 260.58 289.62 254.38 289.77 252.88 291.53 249.74 292.65 247.26 292.15 245.63 288.44 242.71 288.36 238.56 291.63 238.03 294.98 238.33 298.05 234.32 300.48 226.17 296.33 219.51 296.96 216.23 298.05 214.08 299.67 207.98 296.55 205.32 299.19 204.81 296.41 203.5 294.88 205.09 293.05 203.76 290.59 205.19 288.79 208.99 286.84 213.15 287.93 217.74 286.86 218.78 284.41 220.48 283.56 222.44 280.79 223.98 280.94 229.18 279.37 229.58 278.22 234.46 274.4 241 270.41 243.35 267.51 246.54 265.38 249.29 264.42 250.13 262.87 249.2 260.65 255.12 258.85 257.82 258.69 261.31 256.62 264.77 257.49 265.42 259.23 269.35 260.25 273.55 258.27 277.44 259.06 285.26 258.63 290.49 257.93 291.94 256.92 298.2 254.7 304.93 254.86 308.25 255.5 312.3 252.97 315.98 252.12 317.97 254.27 316.38 255.97 316.88 257.65 321.79 257.28 322.47 258.55 326.75 259.64 328.32 257.53 332.16 257.1 335.43 255.43 334.76 253.25 338.46 252.03 335.73 249.21 334.8 246.94 339.37 240.46 346.98 235.1 352.39 229.18 355.49 223.82 355.68 220.97 353.17 216.62 355.2 211.26 359.98 210.19 364.6 207.92 369.28 206.79 370.71 209 368.2 209.43 367.6 212.96 364.47 213.18 362.03 215.72 359.87 214.77 358.44 218.69 363.05 218.43 363.07 221.34 361.81 224.71 365.71 226.65 370.25 226.6 371.55 225.63 372.67 222.49 384.77 219 389.94 216.08 393.74 215.75 398.7 212.19 401.62 210.75 407.16 204.13 409.53 199.15 414.74 196.11 418.76 194.98 421.04 193.64 424.34 190.36 425.11 185.05 428.64 178.01 433.14 173.66 436.18 165.52 437.21 161.55 438.84 160.52 440.22 155.95 440.49 150.2 439.68 147.7 435.81 145.95 432.78 146.84 431.18 143.48 434.38 144.19 436.5 142.73 438.4 139.95 439.59 134.04 437.57 132.39 437.49 129.15 435.37 127.5 440.15 123.4 441.74 124.01 445.94 122.25 447.33 116.71 446.7 114.55 447.54 111.31 451.43 112.69 453.1 111.59 455.52 113 455.24 115.02 456.31 120.11 459.56 121.56 461.4 119.6 464.09 119.02 467.6 120.7 469.5 119.7 470.82 117.01 471.7 112.64 470.04 110.6 466.23 112.7 464.15 112.35 459.53 114.1 458.69 112.37 460.53 106.64 462.34 104.51 467.51 105.46 471.84 108.32 476.52 107.69 474.8 113.27 475.18 122.14 476 125.92 478.12 129.32 479.56 129.21 483.9 133.29 487.33 139.59 486.76 141.77 489.2 143.27 490.72 149.55 489.94 152.26 492.28 155.02 489.75 157.53 488.06 160.43 488.15 166.12 485.51 168.19 481.18 169.33 481.14 171.76 478.4 174.6 479.48 176.2 476.76 180.04 478.84 181.35 476.88 183.49 476.53 186.19 473.32 184.18 467.25 185.14 463.88 190.32 462.82 193.44 463.01 197.57 465.3 201.75 465.81 210.77 464.93 217.03 463.71 221.35 459.69 223.42 456.84 230.33 455.03 233.21 454.86 237.55 453.5 238.96 453.87 242.1 455.61 245.91 460.65 252.89 456 254.27 451.42 257.43 448.91 262.2 449.61 264.25 449.12 266.95 447.24 268.66 442.43 268.86 438.73 271.49 437.07 274.4 434.92 274.59 433.26 273.2 435.55 271.67 434.44 266.89 434.43 263.55 436.39 261.11 439.12 259.82 441.02 256.46 437.69 254.69 436.31 256.19 433.99 255.57 433.26 259.08 430.13 262.3 429.9 264.34 432.12 265.18 430.22 267.42 426.77 264.23 423.89 263.8 419.21 264.66 416.96 265.96 415.48 269.18 415.43 272.09 416.83 275.35 415.48 276.08 411.67 280.75 408.95 282.43 406.6 279 408.13 268.87 405.37 268.44 401.71 269.54 400.68 272.53 396.89 274.15 396.21 276.49 393 279.43 392.33 282.29 388.65 280.91 384.67 280.58 382.08 281.31 379.28 280.5 372.68 280.58 365.29 282.6 364.78 281.35 369.63 279.08 369.34 277.24 359.49 277.79 357.23 275.32 357.12 273.18 358.57 270.89 354.59 271.31 352.88 272.43 351.77 275.79 349.68 278.05 349.28 280.24 350.54 282.42 352.21 282.55 359.5 286.6 357.71 289.86 351.17 291.02 349.37 290.75 343.6 293.81 342.18 296.13 342.94 298.52 338.6 300.58 337.68 301.72 334.86 308.27 332.93 309.92 329.86 311.14 326.56 310.8 321.59 309.36 318.57 306.25 320.22 305.16 315.19 302.56 314.07 300.98 311.82 300.73 312.57 296.04 314.95 294.28 312.84 289.59 315.52 288.96 318.37 286.74 320.81 283.4 320.53 280.8 318.92 279.53 315.57 280.9 311.31 281.68 309.11 281.2 303.55 278.03 297.74 278.21 292.78 279.63 290.75 279.28 288.93 281.95 283.93 284.16 282.72 286.16 279.77 285.87 276.63 284.23 270.71 286.86 269.48 286.32 Z M 587.57 55.9 587.38 57.2 584.01 57.9 581.12 61.37 575.59 61.41 571.03 62.79 570.36 64.73 567.8 66.24 561.55 65.4 561.15 67.84 557.47 67.19 554.81 67.6 550.35 65.82 543.11 67.78 539.1 69.9 532.72 74.62 527.81 79.93 525.26 83.43 524.97 87.78 522.78 93.15 515.23 88.94 510.02 87.57 502.35 84.66 497.74 82.21 494.82 79.8 492.11 79.52 488.59 77.26 483.44 75.75 478.89 76.16 475.75 77.11 467.09 81.56 465.16 83.51 457.87 77.11 452.51 76.69 448.78 78.64 446.4 82.63 446.48 84.96 453.11 88.93 457.35 88.21 464.07 93.87 469.44 96.33 465.85 98.77 463.7 98.81 455.5 96.41 454.53 98.45 450.63 99.87 450.38 102.89 449.29 104.2 446.04 104.99 444.35 107.08 439.95 106.01 438.54 102.97 439.47 99.46 442.31 96.2 442.7 92.1 439.68 88.93 437.1 88.07 433.49 85.29 432.98 83.64 435.09 79.56 434.66 76.48 435.79 74.56 440.35 73.76 444.13 70.67 445.68 72.04 448.68 68.62 452.55 65.49 450.28 62.43 447.67 60.46 448.24 57.5 451.52 56.29 459.83 60.92 464.43 60.03 465.3 61.37 469.09 62.25 474.29 59.42 476.07 56.56 474.29 53.07 474.81 50.96 473.42 47.52 474.65 45.49 478.34 44.21 481.24 41.72 482 38.4 481.62 32.98 483.98 29.19 485.13 24.73 484.92 20.4 483.33 15.51 479.84 10.12 479.77 7.88 482.56 3.98 485.94 3.46 489.48 1.2 491.96 3.99 496.2 6.63 504.39 13.87 506.75 17.35 515.79 25.01 519.32 27.31 525.32 30.3 526.71 31.94 533.8 35.42 536.44 37.52 540.22 37.57 542.01 36.66 547.57 37.24 550.24 40.34 553.12 41.6 561.11 42.32 563.45 41.61 569.05 36.97 572.99 34.81 576.6 31.21 576.81 34.66 574.51 38.33 570.95 42.25 569.72 46.46 572.82 49.89 575.83 56.43 576.08 58.77 579.87 59.36 585.21 56.04 587.57 55.9 Z M 21.92 545.35 25.05 546.65 23.43 548.79 18.54 548.1 21.92 545.35 Z M 35.18 540.41 33.76 542.88 32.93 546.08 30.39 545.53 35.18 540.41 Z M 62.44 535.29 62.35 536.72 59.13 536.55 59.55 533.38 62.44 535.29 Z M 138.47 483.38 136.04 487.6 134.2 487.85 128.23 492.38 124.03 497.9 124.53 500.32 120.79 501.74 120.38 498.98 123.11 495.66 122.84 492.58 128.16 490.2 126.82 487.94 128.85 485.95 130.15 487.56 135.59 483.28 138.47 483.38 Z M 155.24 457.25 156.16 458.65 152.81 459.38 152.81 455.18 154.64 455.1 155.24 457.25 Z M 173.76 440.47 169.81 443.92 166.36 445.94 165.09 448.07 161.78 446.86 161.4 444.53 165.83 442.8 173.25 439.27 173.76 440.47 Z M 198.68 391.2 197.97 393.36 196.17 394.77 192.58 394.69 191.25 392.1 194.15 388.79 198.68 391.2 Z M 208.41 379.2 209.1 382.84 207.98 386.49 206.16 389.09 206.49 390.54 204.12 391.99 203.24 388.73 205.27 386.91 205.5 383.53 208.41 379.2 Z M 191.86 336.13 190.54 338.68 187.53 339.13 186.93 337.57 190.65 335.73 191.86 336.13 Z M 185.43 335.24 186.43 336.94 186.54 340.58 181.61 344.4 181.73 341.76 180.66 340.16 182.15 335.87 185.43 335.24 Z M 152.4 331.95 146.84 333.82 146.3 329.7 151.47 329.75 152.4 331.95 Z M 169.85 312.96 170.02 314.11 167.04 318.43 164.36 318.92 169.85 312.96 Z M 175.54 303.62 172.46 304.42 173.23 301.4 175.3 301.79 175.54 303.62 Z M 163.58 290.57 162.66 294.46 159.92 294 160.65 289.63 163.58 290.57 Z M 310.2 282.11 310.91 282.87 307.63 286.99 309.06 290.82 303.14 292.86 301.3 290.36 302.94 289.29 304.95 286.27 310.2 282.11 Z M 167.2 281.82 167.03 284.52 164.86 287.33 162.55 288.1 163.86 281.08 166.31 280.12 167.2 281.82 Z M 268.06 239.18 267 242.17 263.44 240.68 264 238.59 266.12 237.43 268.06 239.18 Z M 399.26 192.92 402.25 193.81 399.97 197.51 394.26 199.91 394.85 197.14 396.26 195.57 393.43 194.52 395.42 190.38 400.81 186.79 399.26 192.92 Z M 427.33 85.38 426.31 89.05 423.87 87.21 427.33 85.38 Z M 616.28 43.75 617.13 45.2 610.33 47.52 609.14 45.05 613.37 43.7 616.28 43.75 Z M 605.65 29.07 601.96 32.59 597.16 33.27 591.8 37 588.2 41.44 582.77 44.4 582.54 47.08 579.21 47.22 578.36 44.53 580.22 42.84 586.57 38.99 588.44 35.99 592.92 32.59 596.64 27.08 598.57 27.07 602.93 29.24 605.65 29.07 Z M 473.16 9.91 470.8 11.71 468.6 10.56 469.95 7.93 473.16 9.91 Z M 665.69 3.64 664.64 6.29 659.43 6.44 656.39 7.95 650.66 9.31 644.85 14.2 639.13 15.81 637.39 14.14 633.64 18.9 629.34 21.14 625.15 25.15 622.25 25.42 619.17 27.74 616.07 27.49 624.4 21.73 626.14 17.76 628.62 16.9 632.08 14.22 632.26 12.32 636.57 11.94 639.46 9.26 642.17 8.71 641.79 4.55 643.83 3.24 645.22 7.11 646.89 7.88 653.13 7.26 661.1 1.51 665.69 1 665.69 3.64 Z M 293.83 283.5 293.3 286.68 291.13 286.94 289.62 284.58 293.83 283.5 Z" fill-rule="evenodd" fill="#60a5fa"/>
</g>
</svg>